# xmcd
# 
# Track frame offsets:
#     150
#     18873
#     37597
#     56318
# 
# Disc length: 998
# 
# Revision: 4
# Processed by: cddbd v1.5.2PL0 Copyright (c) Steve Scherf et al.
# Submitted via: fre:ac v1.0.27
# 
DISCID=1c03e404
DTITLE=Various Artist - 世界と一緒にまわろうよ! 特典CD
DYEAR=2011
DGENRE=JPop
TTITLE0=リオ・ロリンズ (井上麻里奈) - 世界と一緒にまわろうよ! (リオソロVer.)
TTITLE1=ミント・クラーク (竹達彩奈) - 世界と一緒にまわろうよ! (ミントソロVer.)
TTITLE2=リナ・タチバナ (たかはし智秋) - 世界と一緒にまわろうよ! (リナソロVer.)
TTITLE3=リンダ (日笠陽子) - 世界と一緒にまわろうよ! (リンダソロVer.)
EXTD=
EXTT0=
EXTT1=
EXTT2=
EXTT3=
PLAYORDER=
